<svg xmlns="http://www.w3.org/2000/svg" xmlns:xlink="http://www.w3.org/1999/xlink" id="Capa_1" x="0px" y="0px" viewBox="0 0 77.6 35.6" style="enable-background:new 0 0 77.6 35.6;" xml:space="preserve"><style type="text/css">	.st0{fill:#85BF00;}	.st1{fill:#507CD9;}	.st2{fill:#7A138E;}	.st3{fill:#E1D500;}	.st4{fill:#FFFFFF;}	.st5{fill:#305186;}</style><g id="Ilustraci&#xF3;n_36_3_">	<g>		<g>			<path class="st0" d="M9.7,17.6c4.9,0,8.9,4,8.9,8.9c0,4.9-4,8.9-8.9,8.9s-8.9-4-8.9-8.9C0.8,21.6,4.8,17.6,9.7,17.6"></path>			<path class="st1" d="M29.3,17.6c4.9,0,8.9,4,8.9,8.9c0,4.9-4,8.9-8.9,8.9c-4.9,0-8.9-4-8.9-8.9C20.4,21.6,24.4,17.6,29.3,17.6"></path>			<path class="st2" d="M48.9,17.6c4.9,0,8.9,4,8.9,8.9c0,4.9-4,8.9-8.9,8.9c-4.9,0-8.9-4-8.9-8.9C40,21.6,44,17.6,48.9,17.6"></path>			<path class="st3" d="M68.5,17.6c4.9,0,8.9,4,8.9,8.9c0,4.9-4,8.9-8.9,8.9c-4.9,0-8.9-4-8.9-8.9C59.5,21.6,63.5,17.6,68.5,17.6"></path>			<path class="st4" d="M12.4,28.7c0,0.8-0.3,1.4-0.8,1.8c-0.6,0.4-1.3,0.7-2.3,0.7S7.4,31,6.8,30.7v-1.3c0.4,0.2,0.8,0.3,1.3,0.4    C8.5,29.9,8.9,30,9.3,30c0.6,0,1-0.1,1.2-0.3c0.3-0.2,0.4-0.5,0.4-0.9c0-0.3-0.1-0.6-0.4-0.8c-0.2-0.2-0.8-0.5-1.5-0.8    c-0.8-0.3-1.4-0.7-1.7-1.1c-0.3-0.4-0.5-0.9-0.5-1.5c0-0.7,0.3-1.3,0.8-1.7c0.5-0.4,1.2-0.6,2.1-0.6c0.8,0,1.7,0.2,2.5,0.5    l-0.5,1.2c-0.8-0.3-1.5-0.5-2.1-0.5c-0.5,0-0.8,0.1-1.1,0.3c-0.2,0.2-0.4,0.5-0.4,0.8c0,0.2,0,0.4,0.1,0.6    c0.1,0.2,0.2,0.3,0.5,0.5c0.2,0.1,0.6,0.3,1.2,0.6c0.6,0.3,1.1,0.5,1.4,0.8c0.3,0.2,0.5,0.5,0.7,0.8    C12.3,27.9,12.4,28.3,12.4,28.7"></path>			<polygon class="st4" points="30,31.3 28.5,31.3 28.5,23.8 26,23.8 26,22.6 32.5,22.6 32.5,23.8 30,23.8    "></polygon>			<polygon class="st4" points="51.5,31.3 46.5,31.3 46.5,22.6 51.5,22.6 51.5,23.8 47.9,23.8 47.9,26.1 51.2,26.1 51.2,27.3     47.9,27.3 47.9,30.1 51.5,30.1    "></polygon>			<path class="st4" d="M67.4,31.3L64.9,24h0c0.1,1.1,0.1,2.1,0.1,3.1v4.3h-1.3v-8.7h2l2.4,7h0l2.5-7h2v8.7h-1.4V27c0-0.4,0-1,0-1.7    c0-0.7,0-1.1,0-1.3h0l-2.6,7.3L67.4,31.3L67.4,31.3z"></path>		</g>		<g>			<path class="st5" d="M23.1,6.5c0.4-0.2,0.9-0.3,1.5-0.3c0.8,0,1.5,0.3,2.1,0.9l0.9-0.9c-0.4-0.4-0.8-0.8-1.3-1    c-0.5-0.2-1.1-0.3-1.8-0.3c-0.8,0-1.5,0.2-2.2,0.5c-0.6,0.3-1.1,0.8-1.5,1.4c-0.4,0.6-0.6,1.3-0.6,2.1c0,0.8,0.2,1.5,0.5,2.1    c0.4,0.6,0.9,1.1,1.5,1.5c0.6,0.4,1.4,0.5,2.2,0.5c0.6,0,1.2-0.1,1.8-0.3c0.5-0.2,1-0.5,1.4-1l-0.9-0.9c-0.6,0.6-1.3,0.9-2.1,0.9    c-0.5,0-1-0.1-1.4-0.4c-0.4-0.2-0.8-0.6-1-1c-0.2-0.4-0.4-0.9-0.4-1.4c0-0.5,0.1-1,0.4-1.4C22.3,7,22.6,6.7,23.1,6.5"></path>			<rect x="24.8" y="8" transform="matrix(4.879965e-03 -1 1 4.879965e-03 20.137 37.6034)" class="st5" width="8.3" height="1.4"></rect>			<path class="st5" d="M35.3,7.2c-0.5-0.3-1-0.4-1.7-0.4c-0.6,0-1.2,0.1-1.6,0.4c-0.5,0.3-0.9,0.6-1.1,1.1c-0.3,0.5-0.4,1-0.4,1.6    c0,0.6,0.1,1.1,0.4,1.6c0.3,0.5,0.6,0.8,1.1,1.1c0.5,0.3,1,0.4,1.6,0.4c0.6,0,1.2-0.1,1.7-0.4c0.5-0.3,0.9-0.6,1.1-1.1    c0.3-0.5,0.4-1,0.4-1.6c0-0.6-0.1-1.1-0.4-1.6C36.2,7.8,35.8,7.5,35.3,7.2 M34.9,11.2c-0.3,0.3-0.8,0.5-1.3,0.5    c-0.5,0-0.9-0.2-1.3-0.5c-0.3-0.3-0.5-0.8-0.5-1.4c0-0.6,0.2-1,0.5-1.4C32.7,8.2,33.1,8,33.6,8c0.5,0,0.9,0.2,1.3,0.5    c0.3,0.3,0.5,0.8,0.5,1.4C35.4,10.4,35.3,10.9,34.9,11.2"></path>			<path class="st5" d="M42,10c0,0.6-0.2,1-0.5,1.3c-0.3,0.3-0.7,0.5-1.2,0.5c-0.4,0-0.8-0.1-1-0.4c-0.2-0.3-0.4-0.7-0.4-1.2l0-3.2    l-1.4,0l0,3.4c0,0.9,0.2,1.5,0.7,2c0.5,0.4,1.1,0.7,1.9,0.7c0.4,0,0.8-0.1,1.1-0.2c0.3-0.1,0.6-0.4,0.8-0.6l0,0.8l1.3,0l0-6    l-1.4,0L42,10z"></path>			<path class="st5" d="M49.2,7.7c-0.2-0.3-0.5-0.5-0.8-0.6c-0.3-0.1-0.7-0.2-1.1-0.2c-0.6,0-1.1,0.1-1.6,0.4    c-0.5,0.3-0.8,0.6-1.1,1.1c-0.3,0.5-0.4,1-0.4,1.6c0,0.6,0.1,1.1,0.4,1.6c0.3,0.5,0.6,0.8,1.1,1.1c0.5,0.3,1,0.4,1.6,0.4    c0.4,0,0.8-0.1,1.1-0.2c0.3-0.1,0.6-0.4,0.9-0.6l0,0.8l1.3,0l0-8.3l-1.4,0L49.2,7.7z M49,10.9c-0.2,0.3-0.4,0.5-0.6,0.7    c-0.3,0.2-0.6,0.2-0.9,0.2c-0.3,0-0.6-0.1-0.9-0.2c-0.3-0.2-0.5-0.4-0.6-0.7c-0.2-0.3-0.2-0.6-0.2-1c0-0.4,0.1-0.7,0.2-1    c0.2-0.3,0.4-0.5,0.6-0.7c0.3-0.2,0.6-0.2,0.9-0.2c0.3,0,0.6,0.1,0.9,0.2C48.6,8.5,48.8,8.7,49,9c0.2,0.3,0.2,0.6,0.2,1    C49.2,10.3,49.1,10.7,49,10.9"></path>			<polygon class="st5" points="52.9,5.1 52.4,5.1 52.3,13 57.4,13 57.4,12.5 52.9,12.5    "></polygon>			<path class="st5" d="M60.2,7.1c-0.4,0-0.9,0.1-1.3,0.2c-0.4,0.1-0.8,0.3-1.1,0.6l0.3,0.4c0.2-0.2,0.6-0.4,0.9-0.5    c0.4-0.1,0.7-0.2,1.1-0.2c0.6,0,1,0.1,1.3,0.4c0.3,0.3,0.4,0.7,0.4,1.3l0,0.5l-2,0c-0.8,0-1.3,0.1-1.7,0.4    c-0.4,0.3-0.5,0.7-0.5,1.2c0,0.5,0.2,0.9,0.6,1.2c0.4,0.3,0.9,0.5,1.5,0.5c0.5,0,0.9-0.1,1.3-0.3c0.4-0.2,0.6-0.5,0.8-0.8l0,1    l0.5,0l0-3.7c0-0.7-0.2-1.3-0.6-1.6C61.4,7.3,60.9,7.1,60.2,7.1 M61.8,11.3c-0.2,0.4-0.4,0.8-0.8,1c-0.3,0.2-0.8,0.3-1.2,0.3    c-0.5,0-0.9-0.1-1.2-0.3c-0.3-0.2-0.4-0.5-0.4-0.9c0-0.4,0.1-0.7,0.4-0.9c0.3-0.2,0.7-0.3,1.3-0.3l2,0L61.8,11.3z"></path>			<path class="st5" d="M68.6,7.5c-0.4-0.3-0.9-0.4-1.5-0.4c-0.5,0-1,0.1-1.4,0.4c-0.4,0.2-0.7,0.6-1,1l0-3.8l-0.6,0l0,8.3l0.5,0    l0-1.4c0.2,0.5,0.6,0.8,1,1.1c0.4,0.3,0.9,0.4,1.4,0.4c0.5,0,1-0.1,1.5-0.4c0.4-0.3,0.8-0.6,1-1.1c0.3-0.4,0.4-1,0.4-1.5    c0-0.6-0.1-1.1-0.4-1.5C69.4,8.1,69,7.8,68.6,7.5 M69.1,11.4c-0.2,0.4-0.5,0.7-0.9,0.9c-0.4,0.2-0.8,0.3-1.2,0.3    c-0.4,0-0.9-0.1-1.2-0.3c-0.4-0.2-0.6-0.5-0.8-0.9c-0.2-0.4-0.3-0.8-0.3-1.3c0-0.5,0.1-0.9,0.3-1.3c0.2-0.4,0.5-0.7,0.8-0.9    c0.4-0.2,0.8-0.3,1.2-0.3c0.4,0,0.9,0.1,1.2,0.3c0.4,0.2,0.6,0.5,0.8,0.9c0.2,0.4,0.3,0.8,0.3,1.3C69.4,10.6,69.3,11,69.1,11.4"></path>			<path class="st5" d="M74.7,10.7c-0.2-0.2-0.4-0.4-0.7-0.5c-0.3-0.1-0.6-0.2-1.1-0.3c-0.4-0.1-0.7-0.2-1-0.2    c-0.2-0.1-0.4-0.2-0.6-0.3c-0.2-0.1-0.2-0.4-0.2-0.6c0-0.3,0.1-0.6,0.4-0.8c0.3-0.2,0.7-0.3,1.2-0.3c0.3,0,0.6,0,0.9,0.1    C74,7.9,74.3,8,74.5,8.2l0.3-0.4c-0.2-0.2-0.5-0.3-0.9-0.4c-0.4-0.1-0.7-0.2-1.1-0.2c-0.7,0-1.3,0.1-1.6,0.4    c-0.4,0.3-0.6,0.7-0.6,1.1c0,0.4,0.1,0.7,0.3,0.9c0.2,0.2,0.4,0.4,0.7,0.5c0.3,0.1,0.7,0.2,1.1,0.3c0.4,0.1,0.7,0.1,0.9,0.2    c0.2,0.1,0.4,0.2,0.6,0.3c0.2,0.1,0.2,0.3,0.2,0.6c0,0.3-0.1,0.6-0.4,0.8c-0.3,0.2-0.7,0.3-1.3,0.3c-0.4,0-0.8-0.1-1.2-0.2    c-0.4-0.1-0.7-0.3-0.9-0.5l-0.3,0.4c0.2,0.2,0.6,0.4,1,0.5c0.4,0.1,0.9,0.2,1.3,0.2c0.7,0,1.3-0.1,1.7-0.4    c0.4-0.3,0.6-0.7,0.6-1.2C75,11.2,74.9,10.9,74.7,10.7"></path>			<path class="st5" d="M16.7,1.6c-0.3,0-0.5,0-0.7,0.1c-1.3-1-2.9-1.6-4.6-1.6C9.2,0.1,7.2,1,5.8,2.4C5.5,2.3,5.2,2.3,4.8,2.3    c-2.5,0-4.6,2-4.6,4.5c0,2.5,2,4.5,4.5,4.6c1.3,2.3,3.7,3.8,6.5,3.8c0.6,0,1.2-0.1,1.8-0.2c0.5,0.4,1.2,0.7,1.9,0.7    c0.7,0,1.3-0.2,1.8-0.6c0.9-0.6,1.4-1.5,1.4-2.6c0-0.5-0.1-0.9-0.3-1.3c0.5-1,0.9-2.2,0.9-3.5c0-0.9-0.2-1.8-0.4-2.6    c0.3-0.4,0.5-0.8,0.5-1.3C18.8,2.6,17.9,1.6,16.7,1.6 M16.9,5.3c0.2,0.7,0.5,2.8-0.3,5.5c0.4,0.4,0.7,1,0.7,1.7    c0,1.3-1,2.3-2.3,2.3c-1.3,0-2.3-1-2.3-2.3c0-0.3,0.1-0.6,0.2-0.9c-2.8-2-4.5-2.5-5.3-2.6C7.1,9.7,6.1,10.2,5,10.2    c-1.9,0-3.4-1.6-3.4-3.5c0-1.9,1.6-3.5,3.5-3.5c1.9,0,3.4,1.6,3.4,3.5c0,0.1,0,0.1,0,0.2c2.7,1.3,4.3,3,5,3.9    c0.4-0.4,1-0.7,1.6-0.7c0,0,0,0,0,0c0.3-0.3,1-1.6,1.3-4.9c-0.5-0.1-0.9-0.5-1.1-1.1c-0.2,0-0.7,0.1-1.6,0.5    c0,0.1,0.1,0.2,0.1,0.3c0,0.4-0.4,0.8-0.8,0.8c-0.4,0-0.8-0.4-0.8-0.8c0-0.4,0.4-0.8,0.8-0.8c0.2,0,0.4,0.1,0.5,0.2    c0.3-0.3,0.9-0.7,1.8-0.9c0.1-0.7,0.8-1.2,1.5-1.2c0.8,0,1.5,0.7,1.5,1.5C18.2,4.6,17.7,5.2,16.9,5.3"></path>		</g>	</g></g></svg>